<svg width="184" height="99" viewBox="0 0 184 99" fill="none" xmlns="http://www.w3.org/2000/svg">
<g filter="url(#filter0_d_4354_2603)">
<path d="M14 0.5H170C176.351 0.5 181.5 5.64873 181.5 12V76C181.5 82.3513 176.351 87.5 170 87.5H14C7.64873 87.5 2.5 82.3513 2.5 76V12C2.5 5.64873 7.64873 0.5 14 0.5Z" fill="white"/>
<path d="M14 0.5H170C176.351 0.5 181.5 5.64873 181.5 12V76C181.5 82.3513 176.351 87.5 170 87.5H14C7.64873 87.5 2.5 82.3513 2.5 76V12C2.5 5.64873 7.64873 0.5 14 0.5Z" stroke="#E8E8E8"/>
<path d="M98.793 87.5L93.0605 93.2324C92.4748 93.818 91.5252 93.818 90.9395 93.2324L85.207 87.5H98.793Z" fill="white" stroke="#E8E8E8"/>
</g>
<defs>
<filter id="filter0_d_4354_2603" x="0" y="0" width="184" height="99" filterUnits="userSpaceOnUse" color-interpolation-filters="sRGB">
<feFlood flood-opacity="0" result="BackgroundImageFix"/>
<feColorMatrix in="SourceAlpha" type="matrix" values="0 0 0 0 0 0 0 0 0 0 0 0 0 0 0 0 0 0 127 0" result="hardAlpha"/>
<feMorphology radius="2" operator="erode" in="SourceAlpha" result="effect1_dropShadow_4354_2603"/>
<feOffset dy="2"/>
<feGaussianBlur stdDeviation="2"/>
<feColorMatrix type="matrix" values="0 0 0 0 0.113725 0 0 0 0 0.160784 0 0 0 0 0.239216 0 0 0 0.1 0"/>
<feBlend mode="normal" in2="BackgroundImageFix" result="effect1_dropShadow_4354_2603"/>
<feBlend mode="normal" in="SourceGraphic" in2="effect1_dropShadow_4354_2603" result="shape"/>
</filter>
</defs>
</svg>
