<svg width="15" height="12" viewBox="0 0 15 12" fill="none" xmlns="http://www.w3.org/2000/svg">
<path fill-rule="evenodd" clip-rule="evenodd" d="M7.85141 0.351344C8.07644 0.126379 8.38161 0 8.69981 0C9.018 0 9.32317 0.126379 9.5482 0.351344L14.3482 5.15134C14.5732 5.37638 14.6995 5.68155 14.6995 5.99974C14.6995 6.31794 14.5732 6.62311 14.3482 6.84814L9.5482 11.6481C9.32188 11.8667 9.01876 11.9877 8.70412 11.985C8.38949 11.9822 8.08851 11.856 7.86602 11.6335C7.64353 11.411 7.51733 11.1101 7.5146 10.7954C7.51186 10.4808 7.63282 10.1777 7.85141 9.95134L10.603 7.19974H1.4998C1.18154 7.19974 0.87632 7.07332 0.651277 6.84827C0.426233 6.62323 0.299805 6.318 0.299805 5.99974C0.299805 5.68148 0.426233 5.37626 0.651277 5.15122C0.87632 4.92617 1.18154 4.79974 1.4998 4.79974H10.603L7.85141 2.04814C7.62644 1.82311 7.50006 1.51794 7.50006 1.19974C7.50006 0.881547 7.62644 0.576377 7.85141 0.351344Z" fill="#FCFCFC"/>
</svg>
