<svg width="204" height="122" viewBox="0 0 204 122" fill="none" xmlns="http://www.w3.org/2000/svg">
<g filter="url(#filter0_d_5542_6382)">
<mask id="path-1-inside-1_5542_6382" fill="white">
<path d="M190 0C196.627 2.57703e-07 202 5.37258 202 12V98C202 104.627 196.627 110 190 110H110L103.414 116.586C102.633 117.367 101.367 117.367 100.586 116.586L94 110H14C7.37258 110 2 104.627 2 98V12C2 5.37258 7.37258 2.57703e-07 14 0H190Z"/>
</mask>
<path d="M190 0C196.627 2.57703e-07 202 5.37258 202 12V98C202 104.627 196.627 110 190 110H110L103.414 116.586C102.633 117.367 101.367 117.367 100.586 116.586L94 110H14C7.37258 110 2 104.627 2 98V12C2 5.37258 7.37258 2.57703e-07 14 0H190Z" fill="white"/>
<path d="M190 0L190 -1H190V0ZM202 12L203 12L202 12ZM202 98L203 98V98H202ZM190 110L190 111H190L190 110ZM110 110V109H109.586L109.293 109.293L110 110ZM103.414 116.586L102.707 115.879L102.707 115.879L103.414 116.586ZM100.586 116.586L99.8788 117.293L99.8788 117.293L100.586 116.586ZM94 110L94.7071 109.293L94.4142 109H94V110ZM14 110L14 111H14V110ZM2 98L1 98L2 98ZM2 12L1 12V12H2ZM14 0L14 -1L14 -1L14 0ZM190 0L190 1C196.075 1 201 5.92487 201 12L202 12L203 12C203 4.8203 197.18 -1 190 -1L190 0ZM202 12H201V98H202H203V12H202ZM202 98L201 98C201 104.075 196.075 109 190 109L190 110L190 111C197.18 111 203 105.18 203 98L202 98ZM190 110V109H110V110V111H190V110ZM110 110L109.293 109.293L102.707 115.879L103.414 116.586L104.121 117.293L110.707 110.707L110 110ZM103.414 116.586L102.707 115.879C102.316 116.269 101.684 116.269 101.293 115.879L100.586 116.586L99.8788 117.293C101.05 118.465 102.95 118.465 104.121 117.293L103.414 116.586ZM100.586 116.586L101.293 115.879L94.7071 109.293L94 110L93.2929 110.707L99.8788 117.293L100.586 116.586ZM94 110V109H14V110V111H94V110ZM14 110L14 109C7.92487 109 3 104.075 3 98L2 98L1 98C1 105.18 6.8203 111 14 111L14 110ZM2 98H3V12H2H1V98H2ZM2 12L3 12C3 5.92487 7.92487 1 14 1L14 0L14 -1C6.8203 -1 1 4.8203 1 12L2 12ZM14 0V1H190V0V-1H14V0Z" fill="#E8E8E8" mask="url(#path-1-inside-1_5542_6382)"/>
</g>
<defs>
<filter id="filter0_d_5542_6382" x="0" y="0" width="204" height="121.172" filterUnits="userSpaceOnUse" color-interpolation-filters="sRGB">
<feFlood flood-opacity="0" result="BackgroundImageFix"/>
<feColorMatrix in="SourceAlpha" type="matrix" values="0 0 0 0 0 0 0 0 0 0 0 0 0 0 0 0 0 0 127 0" result="hardAlpha"/>
<feMorphology radius="2" operator="erode" in="SourceAlpha" result="effect1_dropShadow_5542_6382"/>
<feOffset dy="2"/>
<feGaussianBlur stdDeviation="2"/>
<feColorMatrix type="matrix" values="0 0 0 0 0.113725 0 0 0 0 0.160784 0 0 0 0 0.239216 0 0 0 0.1 0"/>
<feBlend mode="normal" in2="BackgroundImageFix" result="effect1_dropShadow_5542_6382"/>
<feBlend mode="normal" in="SourceGraphic" in2="effect1_dropShadow_5542_6382" result="shape"/>
</filter>
</defs>
</svg>
