<svg width="20" height="20" viewBox="0 0 20 20" fill="none" xmlns="http://www.w3.org/2000/svg">
<path fill-rule="evenodd" clip-rule="evenodd" d="M10.0004 19.5984C12.5465 19.5984 14.9883 18.587 16.7886 16.7867C18.589 14.9863 19.6004 12.5445 19.6004 9.99844C19.6004 7.45236 18.589 5.01056 16.7886 3.21021C14.9883 1.40986 12.5465 0.398438 10.0004 0.398438C7.45431 0.398438 5.01252 1.40986 3.21217 3.21021C1.41182 5.01056 0.400391 7.45236 0.400391 9.99844C0.400391 12.5445 1.41182 14.9863 3.21217 16.7867C5.01252 18.587 7.45431 19.5984 10.0004 19.5984V19.5984ZM8.44879 6.75004C8.22247 6.53145 7.91935 6.41049 7.60471 6.41323C7.29007 6.41596 6.9891 6.54217 6.76661 6.76466C6.54412 6.98715 6.41792 7.28812 6.41518 7.60276C6.41245 7.91739 6.5334 8.22051 6.75199 8.44684L8.30359 9.99844L6.75199 11.55C6.63738 11.6607 6.54596 11.7931 6.48307 11.9396C6.42018 12.086 6.38707 12.2434 6.38569 12.4028C6.38431 12.5621 6.41467 12.7201 6.475 12.8676C6.53534 13.0151 6.62445 13.149 6.73712 13.2617C6.84979 13.3744 6.98377 13.4635 7.13125 13.5238C7.27872 13.5842 7.43674 13.6145 7.59607 13.6131C7.75541 13.6118 7.91287 13.5787 8.05928 13.5158C8.20568 13.4529 8.33809 13.3614 8.44879 13.2468L10.0004 11.6952L11.552 13.2468C11.7783 13.4654 12.0814 13.5864 12.3961 13.5836C12.7107 13.5809 13.0117 13.4547 13.2342 13.2322C13.4567 13.0097 13.5829 12.7088 13.5856 12.3941C13.5883 12.0795 13.4674 11.7764 13.2488 11.55L11.6972 9.99844L13.2488 8.44684C13.4674 8.22051 13.5883 7.91739 13.5856 7.60276C13.5829 7.28812 13.4567 6.98715 13.2342 6.76466C13.0117 6.54217 12.7107 6.41596 12.3961 6.41323C12.0814 6.41049 11.7783 6.53145 11.552 6.75004L10.0004 8.30164L8.44879 6.75004Z" fill="#A4A4A4"/>
</svg>
