<svg width="174" height="48" viewBox="0 0 174 48" fill="none" xmlns="http://www.w3.org/2000/svg">
<path d="M166.815 20.682C166.815 20.0615 166.828 19.6028 166.855 19.306C166.908 18.9822 167.029 18.618 167.216 18.2132C167.591 17.5117 168.634 17.161 170.346 17.161C171.63 17.161 172.539 17.3903 173.074 17.849C173.529 18.2267 173.77 18.8068 173.797 19.5893C173.824 19.8591 173.837 20.2503 173.837 20.763V34.9281C173.837 35.5487 173.81 36.0208 173.757 36.3446C173.73 36.6414 173.61 36.9921 173.396 37.3969C173.048 38.0984 172.018 38.4491 170.306 38.4491C168.62 38.4491 167.591 38.0849 167.216 37.3564C167.029 36.9517 166.908 36.6009 166.855 36.3041C166.828 36.0073 166.815 35.5352 166.815 34.8876V20.682Z" fill="#FF9A46"/>
<path d="M158.19 17.2418C158.698 17.0799 159.367 16.9989 160.196 16.9989C161.025 16.9989 161.681 17.0799 162.162 17.2418C162.644 17.4037 162.978 17.687 163.165 18.0917C163.379 18.4694 163.5 18.8202 163.526 19.1439C163.58 19.4407 163.607 19.8994 163.607 20.52V37.1943C163.607 40.3511 162.523 42.8739 160.356 44.7626C158.19 46.6513 155.809 47.5956 153.214 47.5956C152.599 47.5956 152.144 47.5686 151.85 47.5146C151.555 47.4877 151.221 47.3797 150.846 47.1909C150.151 46.8131 149.803 45.8283 149.803 44.2364C149.803 42.6445 150.097 41.6462 150.686 41.2415C151.248 40.8368 152.023 40.6344 153.013 40.6344C153.976 40.6344 154.832 40.3646 155.581 39.825C156.33 39.2854 156.705 38.3141 156.705 36.911V20.2367C156.705 19.2923 156.825 18.6043 157.066 18.1726C157.334 17.7139 157.708 17.4037 158.19 17.2418Z" fill="#FF9A46"/>
<path d="M132.043 27.8036C132.043 24.5658 133.167 21.8947 135.414 19.7901C137.661 17.6856 140.229 16.6333 143.118 16.6333C146.007 16.6333 148.562 17.6856 150.782 19.7901C153.002 21.8677 154.113 24.5253 154.113 27.7631C154.113 30.0025 153.537 31.9991 152.387 33.7529C151.237 35.4797 149.832 36.7613 148.174 37.5977C146.542 38.4072 144.843 38.8119 143.078 38.8119C141.312 38.8119 139.6 38.3802 137.942 37.5168C136.283 36.6264 134.879 35.3313 133.728 33.6315C132.605 31.9047 132.043 29.962 132.043 27.8036ZM140.43 30.7175C141.286 31.3651 142.155 31.6888 143.038 31.6888C143.921 31.6888 144.803 31.3516 145.686 30.677C146.569 30.0025 147.01 29.0042 147.01 27.6821C147.01 26.3601 146.596 25.3752 145.766 24.7277C144.937 24.0801 144.041 23.7564 143.078 23.7564C142.115 23.7564 141.219 24.0936 140.389 24.7682C139.56 25.4427 139.145 26.441 139.145 27.7631C139.145 29.0582 139.573 30.043 140.43 30.7175Z" fill="#FF9A46"/>
<path d="M128.988 9.9163C129.202 10.321 129.323 10.6853 129.35 11.009C129.403 11.3328 129.43 11.805 129.43 12.4255V34.8874C129.43 36.7491 128.922 37.8418 127.905 38.1656C127.397 38.3275 126.755 38.4084 125.979 38.4084C125.203 38.4084 124.588 38.341 124.133 38.2061C123.678 38.0712 123.331 37.9093 123.09 37.7204C122.849 37.5315 122.662 37.2617 122.528 36.911C122.394 36.4523 122.327 35.7508 122.327 34.8064V21.2484C121.659 22.0848 120.682 23.4204 119.398 25.2551C118.114 27.0628 117.298 28.196 116.95 28.6547C116.603 29.1134 116.362 29.4372 116.228 29.626C116.094 29.7879 115.76 30.0308 115.225 30.3545C114.717 30.6513 114.155 30.7997 113.54 30.7997C112.951 30.7997 112.403 30.6648 111.895 30.395C111.413 30.0982 111.065 29.8149 110.851 29.5451L110.53 29.0999C109.995 28.4254 108.939 26.9954 107.36 24.8099C105.782 22.5975 104.926 21.4103 104.792 21.2484V34.8874C104.792 35.5079 104.765 35.9801 104.712 36.3039C104.685 36.6007 104.565 36.938 104.351 37.3157C103.949 38.0442 102.906 38.4084 101.221 38.4084C99.5891 38.4084 98.5725 38.0442 98.1713 37.3157C97.9573 36.938 97.8235 36.5872 97.77 36.2634C97.7432 35.9396 97.7299 35.454 97.7299 34.8064V12.3446C97.7299 11.724 97.7432 11.2654 97.77 10.9686C97.8235 10.6448 97.9573 10.2805 98.1713 9.87582C98.5725 9.17431 99.6158 8.82356 101.301 8.82356C102.023 8.82356 102.639 8.91799 103.147 9.10686C103.682 9.26875 104.03 9.44413 104.19 9.63299L104.431 9.87582L113.54 21.9364C118.087 15.8656 121.124 11.8589 122.648 9.9163C123.103 9.1878 124.173 8.82356 125.859 8.82356C127.571 8.82356 128.614 9.1878 128.988 9.9163Z" fill="#FF9A46"/>
<path d="M93.1749 17.3629C94.7532 18.0644 95.5424 18.9143 95.5424 19.9126C95.5424 20.3982 95.4353 20.8569 95.2213 21.2886C95.0073 21.7203 94.9003 21.9497 94.9003 21.9766L84.3872 45.6931C84.1732 46.2057 83.9859 46.597 83.8254 46.8668C83.6917 47.1366 83.4643 47.3929 83.1433 47.6358C82.8223 47.8786 82.421 48 81.9395 48C81.458 48 80.7491 47.7976 79.8128 47.3929C78.2345 46.6914 77.4453 45.855 77.4453 44.8837C77.4453 44.2361 78.7294 41.1468 81.2975 35.6156L73.3123 22.0576C72.7773 21.1672 72.5098 20.5062 72.5098 20.0745C72.5098 19.2111 73.232 18.3477 74.6766 17.4843C75.5861 16.9447 76.295 16.6748 76.8033 16.6748C77.3116 16.6748 77.7262 16.7828 78.0472 16.9986C78.3682 17.2145 78.5956 17.4438 78.7294 17.6866C78.8899 17.9025 79.6255 19.1571 80.9363 21.4505C82.2739 23.7169 83.5445 25.835 84.7483 27.8046C84.8821 27.3729 85.6044 25.7135 86.9152 22.8266C88.226 19.9126 88.9215 18.3612 89.0017 18.1723C89.1087 17.9834 89.2692 17.7541 89.4833 17.4843C89.831 17.0256 90.3125 16.7963 90.9278 16.7963C91.5698 16.7963 92.3189 16.9851 93.1749 17.3629Z" fill="#97A672"/>
<path d="M62.3841 10.6441C62.3841 10.0235 62.3975 9.56483 62.4242 9.26804C62.4777 8.94426 62.5981 8.58001 62.7854 8.1753C63.1599 7.44681 64.2032 7.08256 65.9152 7.08256C67.547 7.08256 68.5636 7.44681 68.9648 8.1753C69.1789 8.58001 69.2992 8.94426 69.326 9.26804C69.3795 9.59181 69.4062 10.064 69.4062 10.6845V29.423C69.4062 30.3943 69.4865 31.0149 69.647 31.2847C69.8075 31.5275 70.1553 31.6489 70.6903 31.6489C71.252 31.6489 71.6266 31.6759 71.8138 31.7299C72.0011 31.7568 72.2285 31.8648 72.496 32.0536C73.031 32.4044 73.2985 33.3622 73.2985 34.9271C73.2985 36.627 73.031 37.6657 72.496 38.0435C71.8004 38.5291 70.1419 38.6101 67.5203 38.2863C65.4605 38.0165 64.1229 37.3285 63.5076 36.2222C62.7586 34.9002 62.3841 32.7956 62.3841 29.9086V10.6441Z" fill="#97A672"/>
<path d="M52.1566 20.6812C52.1566 20.0606 52.1699 19.6019 52.1967 19.3051C52.2502 18.9813 52.3706 18.6171 52.5578 18.2124C52.9323 17.5109 53.9756 17.1601 55.6877 17.1601C56.9717 17.1601 57.8813 17.3895 58.4163 17.8481C58.8711 18.2259 59.1118 18.806 59.1386 19.5884C59.1653 19.8582 59.1787 20.2495 59.1787 20.7621V34.9272C59.1787 35.5478 59.1519 36.02 59.0984 36.3437C59.0717 36.6405 58.9513 36.9913 58.7373 37.396C58.3895 38.0975 57.3596 38.4483 55.6476 38.4483C53.9622 38.4483 52.9323 38.084 52.5578 37.3555C52.3706 36.9508 52.2502 36.6001 52.1967 36.3033C52.1699 36.0065 52.1566 35.5343 52.1566 34.8867V20.6812ZM58.7373 13.1939C58.55 13.5716 58.2023 13.8414 57.694 14.0033C57.1857 14.1652 56.5036 14.2461 55.6476 14.2461C54.8183 14.2461 54.1495 14.1652 53.6412 14.0033C53.133 13.8414 52.7718 13.5581 52.5578 13.1534C52.3706 12.7487 52.2502 12.3979 52.1967 12.1011C52.1699 11.7774 52.1566 11.3052 52.1566 10.6846C52.1566 10.0641 52.1699 9.60538 52.1967 9.30859C52.2502 8.98481 52.3706 8.63406 52.5578 8.25632C52.9323 7.52783 53.9756 7.16358 55.6877 7.16358C57.373 7.16358 58.3895 7.52783 58.7373 8.25632C58.9513 8.66104 59.0717 9.02528 59.0984 9.34906C59.1519 9.64585 59.1787 10.1045 59.1787 10.7251C59.1787 11.3457 59.1519 11.8178 59.0984 12.1416C59.0717 12.4384 58.9513 12.7892 58.7373 13.1939Z" fill="#97A672"/>
<path d="M41.9767 19.3859C42.1372 17.875 43.1939 17.1195 45.1467 17.1195C46.19 17.1195 46.9658 17.2004 47.4741 17.3623C47.9823 17.5242 48.3301 17.8075 48.5174 18.2122C48.7314 18.6169 48.8517 18.9812 48.8785 19.305C48.932 19.6017 48.9587 20.0604 48.9587 20.681V34.8461C48.9587 35.4667 48.932 35.9389 48.8785 36.2626C48.8517 36.5594 48.7447 36.9102 48.5575 37.3149C48.183 38.0164 47.2601 38.3672 45.7888 38.3672C44.3442 38.3672 43.3678 38.1918 42.8595 37.841C42.378 37.4633 42.0971 36.9237 42.0169 36.2222C41.0271 37.6522 39.3685 38.3672 37.0412 38.3672C34.7406 38.3672 32.6005 37.3014 30.621 35.1699C28.6414 33.0384 27.6516 30.5696 27.6516 27.7636C27.6516 24.9305 28.6414 22.4618 30.621 20.3572C32.6273 18.2257 34.8209 17.16 37.2017 17.16C38.1112 17.16 38.9405 17.3218 39.6895 17.6456C40.4386 17.9694 40.9602 18.2797 41.2545 18.5765C41.5487 18.8463 41.7895 19.1161 41.9767 19.3859ZM34.6737 27.804C34.6737 28.6944 35.0215 29.5038 35.717 30.2323C36.4125 30.9338 37.2552 31.2846 38.245 31.2846C39.2348 31.2846 40.0507 30.9204 40.6927 30.1919C41.3615 29.4634 41.6959 28.6674 41.6959 27.804C41.6959 26.9136 41.3748 26.0907 40.7328 25.3352C40.1175 24.5798 39.2749 24.202 38.2049 24.202C37.1616 24.202 36.3055 24.5798 35.6368 25.3352C34.9947 26.0907 34.6737 26.9136 34.6737 27.804Z" fill="#97A672"/>
<path d="M3.57125 8.74253L10.9946 8.783C14.8735 8.783 18.2843 10.1995 21.2269 13.0325C24.1695 15.8386 25.6408 19.3057 25.6408 23.4338C25.6408 27.5349 24.1963 31.056 21.3071 33.9969C18.4448 36.9379 14.9672 38.4083 10.8743 38.4083H3.53113C1.89932 38.4083 0.882782 38.0711 0.481517 37.3965C0.160506 36.8299 0 35.9665 0 34.8064V12.304C0 11.6565 0.0133755 11.1843 0.0401264 10.8875C0.0936284 10.5907 0.227383 10.24 0.441391 9.83527C0.815905 9.10678 1.85919 8.74253 3.57125 8.74253ZM10.9946 31.2448C12.9207 31.2448 14.6595 30.5298 16.2111 29.0998C17.7626 27.6429 18.5384 25.8216 18.5384 23.6361C18.5384 21.4507 17.776 19.6294 16.2512 18.1725C14.7532 16.6885 12.9876 15.9465 10.9545 15.9465H7.10238V31.2448H10.9946Z" fill="#97A672"/>
<path d="M166.938 1.17368C167.178 0.741982 167.566 0.44519 168.101 0.283303C168.636 0.0944348 169.492 0 170.669 0C171.847 0 172.689 0.269813 173.197 0.809437C173.732 1.32208 174 2.33387 174 3.84482C174 4.41142 173.96 4.93755 173.88 5.42322C173.639 7.71662 172.89 9.71322 171.633 11.413C170.375 13.1129 168.904 13.9628 167.219 13.9628C167.031 13.9628 166.857 13.8144 166.697 13.5176C166.563 13.2478 166.496 12.8835 166.496 12.4248C166.496 11.9931 166.55 11.6424 166.657 11.3726C166.791 11.1028 166.951 10.9274 167.138 10.8464C167.326 10.7925 167.513 10.6845 167.7 10.5227C167.914 10.3878 168.195 10.037 168.543 9.47039C168.891 8.90379 169.091 8.25624 169.145 7.52775C168.289 7.41983 167.62 7.13652 167.138 6.67784C166.684 6.19218 166.456 5.42322 166.456 4.37095C166.483 3.29171 166.51 2.60368 166.536 2.30689C166.59 1.98312 166.724 1.60538 166.938 1.17368Z" fill="#97A672"/>
<path d="M157.376 1.17368C157.617 0.741982 158.005 0.44519 158.54 0.283303C159.075 0.0944348 159.931 0 161.108 0C162.285 0 163.128 0.269813 163.636 0.809437C164.171 1.32208 164.439 2.33387 164.439 3.84482C164.439 4.41142 164.398 4.93755 164.318 5.42322C164.077 7.71662 163.328 9.71322 162.071 11.413C160.814 13.1129 159.343 13.9628 157.657 13.9628C157.47 13.9628 157.296 13.8144 157.136 13.5176C157.002 13.2478 156.935 12.8835 156.935 12.4248C156.935 11.9931 156.988 11.6424 157.095 11.3726C157.229 11.1028 157.39 10.9274 157.577 10.8464C157.764 10.7925 157.952 10.6845 158.139 10.5227C158.353 10.3878 158.634 10.037 158.981 9.47039C159.329 8.90379 159.53 8.25624 159.583 7.52775C158.727 7.41983 158.059 7.13652 157.577 6.67784C157.122 6.19218 156.895 5.42322 156.895 4.37095C156.922 3.29171 156.948 2.60368 156.975 2.30689C157.029 1.98312 157.162 1.60538 157.376 1.17368Z" fill="#97A672"/>
</svg>
