<svg width="87" height="24" viewBox="0 0 87 24" fill="none" xmlns="http://www.w3.org/2000/svg">
<path d="M83.1445 10.3612C83.1445 10.0545 83.1512 9.82787 83.1645 9.6812C83.1912 9.5212 83.2512 9.3412 83.3445 9.1412C83.5312 8.79454 84.0512 8.6212 84.9045 8.6212C85.5445 8.6212 85.9979 8.73454 86.2645 8.9612C86.4912 9.14787 86.6112 9.43454 86.6245 9.8212C86.6379 9.95454 86.6445 10.1479 86.6445 10.4012V17.4012C86.6445 17.7079 86.6312 17.9412 86.6045 18.1012C86.5912 18.2479 86.5312 18.4212 86.4245 18.6212C86.2512 18.9679 85.7379 19.1412 84.8845 19.1412C84.0445 19.1412 83.5312 18.9612 83.3445 18.6012C83.2512 18.4012 83.1912 18.2279 83.1645 18.0812C83.1512 17.9345 83.1445 17.7012 83.1445 17.3812V10.3612Z" fill="#333333"/>
<path d="M78.846 8.66113C79.0993 8.58113 79.4327 8.54113 79.846 8.54113C80.2593 8.54113 80.586 8.58113 80.826 8.66113C81.066 8.74113 81.2327 8.88113 81.326 9.08113C81.4327 9.26779 81.4927 9.44113 81.506 9.60113C81.5327 9.74779 81.546 9.97446 81.546 10.2811V18.5211C81.546 20.0811 81.006 21.3278 79.926 22.2611C78.846 23.1945 77.6593 23.6611 76.366 23.6611C76.0593 23.6611 75.8327 23.6478 75.686 23.6211C75.5393 23.6078 75.3727 23.5545 75.186 23.4611C74.8393 23.2745 74.666 22.7878 74.666 22.0011C74.666 21.2145 74.8127 20.7211 75.106 20.5211C75.386 20.3211 75.7727 20.2211 76.266 20.2211C76.746 20.2211 77.1727 20.0878 77.546 19.8211C77.9193 19.5545 78.106 19.0745 78.106 18.3811V10.1411C78.106 9.67446 78.166 9.33446 78.286 9.12113C78.4193 8.89446 78.606 8.74113 78.846 8.66113Z" fill="#333333"/>
<path d="M65.8135 13.8814C65.8135 12.2814 66.3735 10.9614 67.4935 9.92144C68.6135 8.88144 69.8935 8.36144 71.3335 8.36144C72.7735 8.36144 74.0468 8.88144 75.1535 9.92144C76.2601 10.9481 76.8135 12.2614 76.8135 13.8614C76.8135 14.9681 76.5268 15.9548 75.9535 16.8214C75.3801 17.6748 74.6801 18.3081 73.8535 18.7214C73.0401 19.1214 72.1935 19.3214 71.3135 19.3214C70.4335 19.3214 69.5801 19.1081 68.7535 18.6814C67.9268 18.2414 67.2268 17.6014 66.6535 16.7614C66.0935 15.9081 65.8135 14.9481 65.8135 13.8814ZM69.9935 15.3214C70.4201 15.6414 70.8535 15.8014 71.2935 15.8014C71.7335 15.8014 72.1735 15.6348 72.6135 15.3014C73.0535 14.9681 73.2735 14.4748 73.2735 13.8214C73.2735 13.1681 73.0668 12.6814 72.6535 12.3614C72.2402 12.0414 71.7935 11.8814 71.3135 11.8814C70.8335 11.8814 70.3868 12.0481 69.9735 12.3814C69.5602 12.7148 69.3535 13.2081 69.3535 13.8614C69.3535 14.5014 69.5668 14.9881 69.9935 15.3214Z" fill="#333333"/>
<path d="M64.2909 5.04011C64.3976 5.24011 64.4576 5.42011 64.4709 5.58011C64.4976 5.74011 64.5109 5.97344 64.5109 6.28011V17.3801C64.5109 18.3001 64.2576 18.8401 63.7509 19.0001C63.4976 19.0801 63.1776 19.1201 62.7909 19.1201C62.4043 19.1201 62.0976 19.0868 61.8709 19.0201C61.6443 18.9534 61.4709 18.8734 61.3509 18.7801C61.2309 18.6868 61.1376 18.5534 61.0709 18.3801C61.0043 18.1534 60.9709 17.8068 60.9709 17.3401V10.6401C60.6376 11.0534 60.1509 11.7134 59.5109 12.6201C58.8709 13.5134 58.4643 14.0734 58.2909 14.3001C58.1176 14.5268 57.9976 14.6868 57.9309 14.7801C57.8643 14.8601 57.6976 14.9801 57.4309 15.1401C57.1776 15.2868 56.8976 15.3601 56.5909 15.3601C56.2976 15.3601 56.0243 15.2934 55.7709 15.1601C55.5309 15.0134 55.3576 14.8734 55.2509 14.7401L55.0909 14.5201C54.8243 14.1868 54.2976 13.4801 53.5109 12.4001C52.7243 11.3068 52.2976 10.7201 52.2309 10.6401V17.3801C52.2309 17.6868 52.2176 17.9201 52.1909 18.0801C52.1776 18.2268 52.1176 18.3934 52.0109 18.5801C51.8109 18.9401 51.2909 19.1201 50.4509 19.1201C49.6376 19.1201 49.1309 18.9401 48.9309 18.5801C48.8243 18.3934 48.7576 18.2201 48.7309 18.0601C48.7176 17.9001 48.7109 17.6601 48.7109 17.3401V6.24011C48.7109 5.93344 48.7176 5.70678 48.7309 5.56011C48.7576 5.40011 48.8243 5.22011 48.9309 5.02011C49.1309 4.67344 49.6509 4.50011 50.4909 4.50011C50.8509 4.50011 51.1576 4.54678 51.4109 4.64011C51.6776 4.72011 51.8509 4.80678 51.9309 4.90011L52.0509 5.02011L56.5909 10.9801C58.8576 7.98011 60.3709 6.00011 61.1309 5.04011C61.3576 4.68011 61.8909 4.50011 62.7309 4.50011C63.5843 4.50011 64.1043 4.68011 64.2909 5.04011Z" fill="#333333"/>
<path d="M46.4406 8.72097C47.2273 9.06764 47.6206 9.48764 47.6206 9.98097C47.6206 10.221 47.5673 10.4476 47.4606 10.661C47.354 10.8743 47.3006 10.9876 47.3006 11.001L42.0606 22.721C41.954 22.9743 41.8606 23.1676 41.7806 23.301C41.714 23.4343 41.6006 23.561 41.4406 23.681C41.2806 23.801 41.0806 23.861 40.8406 23.861C40.6006 23.861 40.2473 23.761 39.7806 23.561C38.994 23.2143 38.6006 22.801 38.6006 22.321C38.6006 22.001 39.2406 20.4743 40.5206 17.741L36.5406 11.041C36.274 10.601 36.1406 10.2743 36.1406 10.061C36.1406 9.6343 36.5006 9.20764 37.2206 8.78097C37.674 8.5143 38.0273 8.38097 38.2806 8.38097C38.534 8.38097 38.7406 8.4343 38.9006 8.54097C39.0606 8.64764 39.174 8.76097 39.2406 8.88097C39.3206 8.98764 39.6873 9.60764 40.3406 10.741C41.0073 11.861 41.6406 12.9076 42.2406 13.881C42.3073 13.6676 42.6673 12.8476 43.3206 11.421C43.974 9.98097 44.3206 9.2143 44.3606 9.12097C44.414 9.02764 44.494 8.9143 44.6006 8.78097C44.774 8.5543 45.014 8.44097 45.3206 8.44097C45.6406 8.44097 46.014 8.5343 46.4406 8.72097Z" fill="#333333"/>
<path d="M31.0939 5.40063C31.0939 5.09396 31.1005 4.86729 31.1139 4.72063C31.1405 4.56063 31.2005 4.38062 31.2939 4.18062C31.4805 3.82062 32.0005 3.64062 32.8539 3.64062C33.6672 3.64062 34.1739 3.82062 34.3739 4.18062C34.4805 4.38062 34.5405 4.56063 34.5539 4.72063C34.5805 4.88063 34.5939 5.11396 34.5939 5.42062V14.6806C34.5939 15.1606 34.6339 15.4673 34.7139 15.6006C34.7939 15.7206 34.9672 15.7806 35.2339 15.7806C35.5139 15.7806 35.7005 15.794 35.7939 15.8206C35.8872 15.834 36.0005 15.8873 36.1339 15.9806C36.4005 16.154 36.5339 16.6273 36.5339 17.4006C36.5339 18.2406 36.4005 18.754 36.1339 18.9406C35.7872 19.1806 34.9605 19.2206 33.6539 19.0606C32.6272 18.9273 31.9605 18.5873 31.6539 18.0406C31.2805 17.3873 31.0939 16.3473 31.0939 14.9206V5.40063Z" fill="#333333"/>
<path d="M25.9961 10.3598C25.9961 10.0531 26.0028 9.82647 26.0161 9.6798C26.0428 9.5198 26.1028 9.3398 26.1961 9.1398C26.3828 8.79313 26.9028 8.6198 27.7561 8.6198C28.3961 8.6198 28.8494 8.73313 29.1161 8.9598C29.3428 9.14647 29.4628 9.43313 29.4761 9.8198C29.4894 9.95313 29.4961 10.1465 29.4961 10.3998V17.3998C29.4961 17.7065 29.4828 17.9398 29.4561 18.0998C29.4428 18.2465 29.3828 18.4198 29.2761 18.6198C29.1028 18.9665 28.5894 19.1398 27.7361 19.1398C26.8961 19.1398 26.3828 18.9598 26.1961 18.5998C26.1028 18.3998 26.0428 18.2265 26.0161 18.0798C26.0028 17.9331 25.9961 17.6998 25.9961 17.3798V10.3598ZM29.2761 6.6598C29.1828 6.84647 29.0094 6.9798 28.7561 7.0598C28.5028 7.1398 28.1628 7.1798 27.7361 7.1798C27.3228 7.1798 26.9894 7.1398 26.7361 7.0598C26.4828 6.9798 26.3028 6.8398 26.1961 6.6398C26.1028 6.4398 26.0428 6.26647 26.0161 6.1198C26.0028 5.9598 25.9961 5.72646 25.9961 5.4198C25.9961 5.11313 26.0028 4.88647 26.0161 4.7398C26.0428 4.5798 26.1028 4.40646 26.1961 4.2198C26.3828 3.8598 26.9028 3.6798 27.7561 3.6798C28.5961 3.6798 29.1028 3.8598 29.2761 4.2198C29.3828 4.4198 29.4428 4.5998 29.4561 4.7598C29.4828 4.90647 29.4961 5.13313 29.4961 5.4398C29.4961 5.74647 29.4828 5.9798 29.4561 6.1398C29.4428 6.28646 29.3828 6.4598 29.2761 6.6598Z" fill="#333333"/>
<path d="M20.9222 9.71972C21.0022 8.97305 21.5289 8.59972 22.5022 8.59972C23.0222 8.59972 23.4089 8.63972 23.6622 8.71972C23.9156 8.79972 24.0889 8.93972 24.1822 9.13972C24.2889 9.33972 24.3489 9.51972 24.3622 9.67972C24.3889 9.82639 24.4022 10.0531 24.4022 10.3597V17.3597C24.4022 17.6664 24.3889 17.8997 24.3622 18.0597C24.3489 18.2064 24.2956 18.3797 24.2022 18.5797C24.0156 18.9264 23.5556 19.0997 22.8222 19.0997C22.1022 19.0997 21.6156 19.0131 21.3622 18.8397C21.1222 18.6531 20.9822 18.3864 20.9422 18.0397C20.4489 18.7464 19.6222 19.0997 18.4622 19.0997C17.3156 19.0997 16.2489 18.5731 15.2622 17.5197C14.2756 16.4664 13.7822 15.2464 13.7822 13.8597C13.7822 12.4597 14.2756 11.2397 15.2622 10.1997C16.2622 9.14639 17.3556 8.61972 18.5422 8.61972C18.9956 8.61972 19.4089 8.69972 19.7822 8.85972C20.1556 9.01972 20.4156 9.17305 20.5622 9.31972C20.7089 9.45305 20.8289 9.58639 20.9222 9.71972ZM17.2822 13.8797C17.2822 14.3197 17.4556 14.7197 17.8022 15.0797C18.1489 15.4264 18.5689 15.5997 19.0622 15.5997C19.5556 15.5997 19.9622 15.4197 20.2822 15.0597C20.6156 14.6997 20.7822 14.3064 20.7822 13.8797C20.7822 13.4397 20.6222 13.0331 20.3022 12.6597C19.9956 12.2864 19.5756 12.0997 19.0422 12.0997C18.5222 12.0997 18.0956 12.2864 17.7622 12.6597C17.4422 13.0331 17.2822 13.4397 17.2822 13.8797Z" fill="#333333"/>
<path d="M1.78 4.46105L5.48 4.48105C7.41333 4.48105 9.11333 5.18105 10.58 6.58105C12.0467 7.96771 12.78 9.68105 12.78 11.721C12.78 13.7477 12.06 15.4877 10.62 16.941C9.19333 18.3944 7.46 19.121 5.42 19.121H1.76C0.946667 19.121 0.44 18.9544 0.24 18.621C0.0799999 18.341 0 17.9144 0 17.341V6.22105C0 5.90105 0.00666667 5.66771 0.02 5.52105C0.0466667 5.37438 0.113333 5.20105 0.22 5.00105C0.406667 4.64105 0.926667 4.46105 1.78 4.46105ZM5.48 15.581C6.44 15.581 7.30667 15.2277 8.08 14.521C8.85333 13.801 9.24 12.901 9.24 11.821C9.24 10.741 8.86 9.84105 8.1 9.12105C7.35333 8.38771 6.47333 8.02105 5.46 8.02105H3.54V15.581H5.48Z" fill="#333333"/>
<path d="M83.2059 0.720625C83.3259 0.507292 83.5193 0.360625 83.7859 0.280625C84.0526 0.187292 84.4793 0.140625 85.0659 0.140625C85.6526 0.140625 86.0726 0.273959 86.3259 0.540626C86.5926 0.793959 86.7259 1.29396 86.7259 2.04063C86.7259 2.32063 86.7059 2.58062 86.6659 2.82062C86.5459 3.95396 86.1726 4.94063 85.5459 5.78063C84.9193 6.62063 84.1859 7.04063 83.3459 7.04063C83.2526 7.04063 83.1659 6.96729 83.0859 6.82062C83.0193 6.68729 82.9859 6.50729 82.9859 6.28063C82.9859 6.06729 83.0126 5.89396 83.0659 5.76062C83.1326 5.62729 83.2126 5.54062 83.3059 5.50062C83.3993 5.47396 83.4926 5.42062 83.5859 5.34062C83.6926 5.27396 83.8326 5.10062 84.0059 4.82062C84.1793 4.54062 84.2793 4.22063 84.3059 3.86063C83.8793 3.80729 83.5459 3.66729 83.3059 3.44063C83.0793 3.20063 82.9659 2.82063 82.9659 2.30063C82.9793 1.76729 82.9926 1.42729 83.0059 1.28063C83.0326 1.12063 83.0993 0.933958 83.2059 0.720625Z" fill="#333333"/>
<path d="M78.4403 0.720625C78.5603 0.507292 78.7536 0.360625 79.0203 0.280625C79.287 0.187292 79.7136 0.140625 80.3003 0.140625C80.887 0.140625 81.307 0.273959 81.5603 0.540626C81.827 0.793959 81.9603 1.29396 81.9603 2.04063C81.9603 2.32063 81.9403 2.58062 81.9003 2.82062C81.7803 3.95396 81.407 4.94063 80.7803 5.78063C80.1537 6.62063 79.4203 7.04063 78.5803 7.04063C78.487 7.04063 78.4003 6.96729 78.3203 6.82062C78.2537 6.68729 78.2203 6.50729 78.2203 6.28063C78.2203 6.06729 78.247 5.89396 78.3003 5.76062C78.367 5.62729 78.447 5.54062 78.5403 5.50062C78.6336 5.47396 78.727 5.42062 78.8203 5.34062C78.927 5.27396 79.067 5.10062 79.2403 4.82062C79.4137 4.54062 79.5136 4.22063 79.5403 3.86063C79.1136 3.80729 78.7803 3.66729 78.5403 3.44063C78.3136 3.20063 78.2003 2.82063 78.2003 2.30063C78.2137 1.76729 78.227 1.42729 78.2403 1.28063C78.267 1.12063 78.3336 0.933958 78.4403 0.720625Z" fill="#333333"/>
</svg>
