<svg width="24" height="24" viewBox="0 0 24 24" fill="none" xmlns="http://www.w3.org/2000/svg">
<path d="M12.8482 2.74978C12.6232 2.52482 12.318 2.39844 11.9998 2.39844C11.6816 2.39844 11.3764 2.52482 11.1514 2.74978L2.7514 11.1498C2.53282 11.3761 2.41186 11.6792 2.4146 11.9939C2.41733 12.3085 2.54353 12.6095 2.76602 12.832C2.98851 13.0545 3.28949 13.1807 3.60412 13.1834C3.91876 13.1861 4.22188 13.0652 4.44821 12.8466L4.79981 12.495V20.3982C4.79981 20.7164 4.92623 21.0217 5.15128 21.2467C5.37632 21.4718 5.68155 21.5982 5.99981 21.5982H8.39981C8.71807 21.5982 9.02329 21.4718 9.24833 21.2467C9.47338 21.0217 9.59981 20.7164 9.59981 20.3982V17.9982C9.59981 17.6799 9.72623 17.3747 9.95128 17.1497C10.1763 16.9246 10.4815 16.7982 10.7998 16.7982H13.1998C13.5181 16.7982 13.8233 16.9246 14.0483 17.1497C14.2734 17.3747 14.3998 17.6799 14.3998 17.9982V20.3982C14.3998 20.7164 14.5262 21.0217 14.7513 21.2467C14.9763 21.4718 15.2815 21.5982 15.5998 21.5982H17.9998C18.3181 21.5982 18.6233 21.4718 18.8483 21.2467C19.0734 21.0217 19.1998 20.7164 19.1998 20.3982V12.495L19.5514 12.8466C19.7777 13.0652 20.0809 13.1861 20.3955 13.1834C20.7101 13.1807 21.0111 13.0545 21.2336 12.832C21.4561 12.6095 21.5823 12.3085 21.585 11.9939C21.5877 11.6792 21.4668 11.3761 21.2482 11.1498L12.8482 2.74978V2.74978Z" fill="#777777"/>
</svg>
