<svg width="24" height="24" viewBox="0 0 24 24" fill="none" xmlns="http://www.w3.org/2000/svg">
<path d="M20.0005 18V17C20.0005 15.9391 19.5791 14.9217 18.8289 14.1716C18.0788 13.4214 17.0614 13 16.0005 13H8.00049C6.93962 13 5.92221 13.4214 5.17206 14.1716C4.42192 14.9217 4.00049 15.9391 4.00049 17V18C4.00049 18.5304 4.21089 19.0391 4.58596 19.4142C4.96103 19.7893 5.46974 20 6.00017 20H18.0002C18.5306 20 19.0393 19.7893 19.4144 19.4142C19.7895 19.0391 20.0005 18.5304 20.0005 18Z" fill="#777777"/>
<path d="M11.9999 11C14.209 11 15.9999 9.20914 15.9999 7C15.9999 4.79086 14.209 3 11.9999 3C9.79074 3 7.99988 4.79086 7.99988 7C7.99988 9.20914 9.79074 11 11.9999 11Z" fill="#777777"/>
</svg>
