<svg width="24" height="24" viewBox="0 0 24 24" fill="none" xmlns="http://www.w3.org/2000/svg">
<path d="M2.3999 13.2016C2.3999 12.8833 2.52633 12.5781 2.75137 12.353C2.97642 12.128 3.28164 12.0016 3.5999 12.0016H5.9999C6.31816 12.0016 6.62339 12.128 6.84843 12.353C7.07347 12.5781 7.1999 12.8833 7.1999 13.2016V19.2016C7.1999 19.5198 7.07347 19.825 6.84843 20.0501C6.62339 20.2751 6.31816 20.4016 5.9999 20.4016H3.5999C3.28164 20.4016 2.97642 20.2751 2.75137 20.0501C2.52633 19.825 2.3999 19.5198 2.3999 19.2016V13.2016ZM9.5999 8.40156C9.5999 8.0833 9.72633 7.77808 9.95137 7.55303C10.1764 7.32799 10.4816 7.20156 10.7999 7.20156H13.1999C13.5182 7.20156 13.8234 7.32799 14.0484 7.55303C14.2735 7.77808 14.3999 8.0833 14.3999 8.40156V19.2016C14.3999 19.5198 14.2735 19.825 14.0484 20.0501C13.8234 20.2751 13.5182 20.4016 13.1999 20.4016H10.7999C10.4816 20.4016 10.1764 20.2751 9.95137 20.0501C9.72633 19.825 9.5999 19.5198 9.5999 19.2016V8.40156ZM16.7999 4.80156C16.7999 4.4833 16.9263 4.17808 17.1514 3.95303C17.3764 3.72799 17.6816 3.60156 17.9999 3.60156H20.3999C20.7182 3.60156 21.0234 3.72799 21.2484 3.95303C21.4735 4.17808 21.5999 4.4833 21.5999 4.80156V19.2016C21.5999 19.5198 21.4735 19.825 21.2484 20.0501C21.0234 20.2751 20.7182 20.4016 20.3999 20.4016H17.9999C17.6816 20.4016 17.3764 20.2751 17.1514 20.0501C16.9263 19.825 16.7999 19.5198 16.7999 19.2016V4.80156Z" fill="#777777"/>
</svg>
