<svg width="20" height="20" viewBox="0 0 20 20" fill="none" xmlns="http://www.w3.org/2000/svg">
<path fill-rule="evenodd" clip-rule="evenodd" d="M20 10C20 10.3788 19.786 10.725 19.4472 10.8944L1.44721 19.8944C1.10217 20.067 0.688655 20.0256 0.384587 19.7882C0.0805179 19.5508 -0.0598744 19.1597 0.0238124 18.7831L1.97561 10L0.0238132 1.21694C-0.0598736 0.84035 0.0805187 0.449211 0.384588 0.211801C0.688656 -0.0256082 1.10217 -0.0669435 1.44721 0.10558L19.4472 9.10558C19.786 9.27497 20 9.62124 20 10ZM3.80217 11L2.43195 17.166L16.7639 10L2.43195 2.83402L3.80217 9.00001L11 9.00001C11.5523 9.00001 12 9.44772 12 10C12 10.5523 11.5523 11 11 11L3.80217 11Z" fill="#A4A4A4"/>
</svg>
