<svg width="17" height="14" viewBox="0 0 17 14" fill="none" xmlns="http://www.w3.org/2000/svg">
<path fill-rule="evenodd" clip-rule="evenodd" d="M16.667 6.66669C16.667 7.01037 16.456 7.3188 16.1357 7.44336L1.1357 13.2767C0.822922 13.3983 0.467704 13.3205 0.234472 13.0792C0.00123986 12.8379 -0.0644921 12.4802 0.0677046 12.1718L2.42702 6.66669L0.0677046 1.16163C-0.0644921 0.853167 0.00123986 0.495508 0.234472 0.254207C0.467704 0.0129066 0.822922 -0.0649447 1.1357 0.0566901L16.1357 5.89002C16.456 6.01459 16.667 6.32302 16.667 6.66669ZM3.88316 7.50003L2.38146 11.004L13.5345 6.66669L2.38146 2.32942L3.88316 5.83336H7.50033C7.96056 5.83336 8.33366 6.20646 8.33366 6.66669C8.33366 7.12693 7.96056 7.50003 7.50033 7.50003H3.88316Z" fill="#777777"/>
</svg>
