<svg width="20" height="20" viewBox="0 0 20 20" fill="none" xmlns="http://www.w3.org/2000/svg">
<path d="M18.9363 11.0709C19.1354 10.9711 19.3027 10.8179 19.4197 10.6285C19.5367 10.439 19.5986 10.2207 19.5986 9.99808C19.5986 9.77542 19.5367 9.55715 19.4197 9.36769C19.3027 9.17823 19.1354 9.02505 18.9363 8.92528L2.13631 0.525279C1.92801 0.421052 1.69387 0.379701 1.46247 0.40627C1.23106 0.43284 1.01239 0.526181 0.833126 0.674909C0.653866 0.823636 0.521765 1.02132 0.452936 1.24384C0.384108 1.46637 0.381527 1.70411 0.445513 1.92808L2.16031 7.92808C2.23204 8.17885 2.38352 8.39942 2.59182 8.5564C2.80011 8.71338 3.05389 8.79822 3.31471 8.79808L8.79991 8.79808C9.11817 8.79808 9.4234 8.92451 9.64844 9.14955C9.87348 9.3746 9.99991 9.67982 9.99991 9.99808C9.99991 10.3163 9.87348 10.6216 9.64844 10.8466C9.4234 11.0717 9.11817 11.1981 8.79991 11.1981L3.31471 11.1981C3.05389 11.1979 2.80011 11.2828 2.59182 11.4398C2.38352 11.5967 2.23204 11.8173 2.16031 12.0681L0.446712 18.0681C0.3826 18.292 0.385024 18.5297 0.453691 18.7522C0.522355 18.9748 0.654294 19.1725 0.833417 19.3214C1.01254 19.4702 1.2311 19.5637 1.46245 19.5905C1.6938 19.6172 1.92794 19.5761 2.13631 19.4721L18.9363 11.0721L18.9363 11.0709Z" fill="#FF831E"/>
</svg>
