<svg width="20" height="20" viewBox="0 0 20 20" fill="none" xmlns="http://www.w3.org/2000/svg">
<path fill-rule="evenodd" clip-rule="evenodd" d="M11.3877 1.404C10.9317 -0.468 8.2677 -0.468 7.8117 1.404C7.74362 1.6853 7.61009 1.94655 7.42197 2.16649C7.23385 2.38644 6.99646 2.55886 6.72911 2.66972C6.46177 2.78059 6.17203 2.82677 5.88346 2.80451C5.5949 2.78224 5.31567 2.69216 5.0685 2.5416C3.4221 1.5384 1.5381 3.4224 2.5413 5.0688C3.1893 6.132 2.6145 7.5192 1.4049 7.8132C-0.4683 8.268 -0.4683 10.9332 1.4049 11.3868C1.68627 11.455 1.94757 11.5886 2.16751 11.7769C2.38746 11.9651 2.55983 12.2027 2.67059 12.4702C2.78135 12.7377 2.82737 13.0275 2.8049 13.3162C2.78244 13.6048 2.69212 13.8841 2.5413 14.1312C1.5381 15.7776 3.4221 17.6616 5.0685 16.6584C5.31563 16.5076 5.59488 16.4173 5.88352 16.3948C6.17216 16.3723 6.46203 16.4184 6.72952 16.5291C6.997 16.6399 7.23455 16.8122 7.42281 17.0322C7.61108 17.2521 7.74473 17.5134 7.8129 17.7948C8.2677 19.668 10.9329 19.668 11.3865 17.7948C11.4549 17.5136 11.5887 17.2525 11.777 17.0327C11.9653 16.8129 12.2028 16.6406 12.4702 16.5299C12.7376 16.4192 13.0274 16.3731 13.3159 16.3954C13.6045 16.4177 13.8837 16.5079 14.1309 16.6584C15.7773 17.6616 17.6613 15.7776 16.6581 14.1312C16.5076 13.884 16.4174 13.6048 16.3951 13.3162C16.3728 13.0277 16.4189 12.7379 16.5296 12.4705C16.6403 12.2031 16.8126 11.9656 17.0324 11.7773C17.2522 11.589 17.5133 11.4552 17.7945 11.3868C19.6677 10.932 19.6677 8.2668 17.7945 7.8132C17.5131 7.74503 17.2518 7.61138 17.0319 7.42311C16.8119 7.23485 16.6396 6.9973 16.5288 6.72982C16.4181 6.46233 16.372 6.17246 16.3945 5.88382C16.417 5.59518 16.5073 5.31593 16.6581 5.0688C17.6613 3.4224 15.7773 1.5384 14.1309 2.5416C13.8838 2.69242 13.6045 2.78274 13.3159 2.8052C13.0272 2.82767 12.7374 2.78165 12.4699 2.67089C12.2024 2.56013 11.9648 2.38776 11.7766 2.16781C11.5883 1.94787 11.4547 1.68657 11.3865 1.4052L11.3877 1.404ZM9.5997 13.2C10.5545 13.2 11.4702 12.8207 12.1453 12.1456C12.8204 11.4705 13.1997 10.5548 13.1997 9.6C13.1997 8.64522 12.8204 7.72955 12.1453 7.05442C11.4702 6.37929 10.5545 6 9.5997 6C8.64492 6 7.72925 6.37929 7.05412 7.05442C6.37899 7.72955 5.9997 8.64522 5.9997 9.6C5.9997 10.5548 6.37899 11.4705 7.05412 12.1456C7.72925 12.8207 8.64492 13.2 9.5997 13.2V13.2Z" fill="#333333"/>
</svg>
