<svg width="18" height="18" viewBox="0 0 18 18" fill="none" xmlns="http://www.w3.org/2000/svg">
<path fill-rule="evenodd" clip-rule="evenodd" d="M3 0C3.55228 0 4 0.447715 4 1V10.1716C4.4179 10.3193 4.80192 10.5593 5.12132 10.8787C5.68393 11.4413 6 12.2044 6 13C6 13.7956 5.68393 14.5587 5.12132 15.1213C4.80192 15.4407 4.4179 15.6807 4 15.8284V17C4 17.5523 3.55228 18 3 18C2.44772 18 2 17.5523 2 17V15.8284C1.5821 15.6807 1.19808 15.4407 0.87868 15.1213C0.31607 14.5587 0 13.7956 0 13C0 12.2044 0.31607 11.4413 0.87868 10.8787C1.19808 10.5593 1.5821 10.3193 2 10.1716V1C2 0.447715 2.44772 0 3 0ZM3 14C3.26522 14 3.51957 13.8946 3.70711 13.7071C3.89464 13.5196 4 13.2652 4 13C4 12.7348 3.89464 12.4804 3.70711 12.2929C3.51957 12.1054 3.26522 12 3 12C2.73478 12 2.48043 12.1054 2.29289 12.2929C2.10536 12.4804 2 12.7348 2 13C2 13.2652 2.10536 13.5196 2.29289 13.7071C2.48043 13.8946 2.73478 14 3 14ZM9 0C9.55229 0 10 0.447715 10 1V2.17157C10.4179 2.31933 10.8019 2.55927 11.1213 2.87868C11.6839 3.44129 12 4.20435 12 5C12 5.79565 11.6839 6.55871 11.1213 7.12132C10.8019 7.44072 10.4179 7.68067 10 7.82843V17C10 17.5523 9.55229 18 9 18C8.44772 18 8 17.5523 8 17V7.82843C7.5821 7.68067 7.19808 7.44072 6.87868 7.12132C6.31607 6.55871 6 5.79565 6 5C6 4.20435 6.31607 3.44129 6.87868 2.87868C7.19808 2.55927 7.5821 2.31933 8 2.17157V1C8 0.447715 8.44772 0 9 0ZM9 6C9.26522 6 9.51957 5.89464 9.70711 5.70711C9.89464 5.51957 10 5.26522 10 5C10 4.73478 9.89464 4.48043 9.70711 4.29289C9.51957 4.10536 9.26522 4 9 4C8.73478 4 8.48043 4.10536 8.29289 4.29289C8.10536 4.48043 8 4.73478 8 5C8 5.26522 8.10536 5.51957 8.29289 5.70711C8.48043 5.89464 8.73478 6 9 6ZM15 0C15.5523 0 16 0.447715 16 1V10.1716C16.4179 10.3193 16.8019 10.5593 17.1213 10.8787C17.6839 11.4413 18 12.2043 18 13C18 13.7957 17.6839 14.5587 17.1213 15.1213C16.8019 15.4407 16.4179 15.6807 16 15.8284V17C16 17.5523 15.5523 18 15 18C14.4477 18 14 17.5523 14 17V15.8284C13.5821 15.6807 13.1981 15.4407 12.8787 15.1213C12.3161 14.5587 12 13.7957 12 13C12 12.2043 12.3161 11.4413 12.8787 10.8787C13.1981 10.5593 13.5821 10.3193 14 10.1716V1C14 0.447715 14.4477 0 15 0ZM15 14C15.2652 14 15.5196 13.8946 15.7071 13.7071C15.8946 13.5196 16 13.2652 16 13C16 12.7348 15.8946 12.4804 15.7071 12.2929C15.5196 12.1054 15.2652 12 15 12C14.7348 12 14.4804 12.1054 14.2929 12.2929C14.1054 12.4804 14 12.7348 14 13C14 13.2652 14.1054 13.5196 14.2929 13.7071C14.4804 13.8946 14.7348 14 15 14Z" fill="#333333"/>
</svg>
