<svg width="24" height="24" viewBox="0 0 24 24" fill="none" xmlns="http://www.w3.org/2000/svg">
<path d="M21.5997 11.3984C21.5997 11.8758 21.4101 12.3337 21.0725 12.6712C20.7349 13.0088 20.2771 13.1984 19.7997 13.1984C19.3223 13.1984 18.8645 13.0088 18.5269 12.6712C18.1894 12.3337 17.9997 11.8758 17.9997 11.3984V4.19844C17.9997 3.72105 18.1894 3.26321 18.5269 2.92565C18.8645 2.58808 19.3223 2.39844 19.7997 2.39844C20.2771 2.39844 20.7349 2.58808 21.0725 2.92565C21.4101 3.26321 21.5997 3.72105 21.5997 4.19844V11.3984ZM16.7997 11.5988V5.08284C16.8 4.63697 16.6761 4.19982 16.4419 3.82042C16.2077 3.44102 15.8724 3.13436 15.4737 2.93484L15.4137 2.90484C14.7468 2.5715 14.0113 2.39812 13.2657 2.39844H6.76771C6.21267 2.39822 5.67472 2.59038 5.24544 2.94221C4.81616 3.29403 4.5221 3.78377 4.41331 4.32804L2.97331 11.528C2.9037 11.8763 2.91225 12.2357 2.99834 12.5802C3.08442 12.9248 3.2459 13.2459 3.47113 13.5205C3.69635 13.7951 3.97971 14.0163 4.30077 14.1681C4.62182 14.3199 4.97257 14.3986 5.32771 14.3984H9.59971V19.1984C9.59971 19.835 9.85257 20.4454 10.3027 20.8955C10.7527 21.3456 11.3632 21.5984 11.9997 21.5984C12.318 21.5984 12.6232 21.472 12.8482 21.247C13.0733 21.0219 13.1997 20.7167 13.1997 20.3984V19.598C13.1997 18.5595 13.5366 17.5489 14.1597 16.718L15.8397 14.4788C16.4629 13.648 16.7997 12.6374 16.7997 11.5988Z" fill="#A4A4A4"/>
</svg>
