<svg width="24" height="24" viewBox="0 0 24 24" fill="none" xmlns="http://www.w3.org/2000/svg">
<path fill-rule="evenodd" clip-rule="evenodd" d="M8.73626 4C8.55053 4.00001 8.36846 4.05175 8.21048 4.14942C8.05249 4.2471 7.92482 4.38684 7.84179 4.553L4.34179 11.553C4.26568 11.7054 4.22966 11.8749 4.23735 12.0451C4.24504 12.2154 4.29611 12.3808 4.38573 12.5258C4.47535 12.6708 4.60053 12.7904 4.74939 12.8734C4.89825 12.9564 5.06584 13 5.23626 13M8.73626 4H12.7539C12.8356 4.00007 12.9169 4.01014 12.9962 4.03L16.0003 4.78103V12.6972L12.7764 17.533C12.2875 18.2659 12.0195 19.1216 12.0013 20H11.9993C11.734 20 11.4797 19.8946 11.2922 19.7071C11.1046 19.5196 10.9993 19.2652 10.9993 19V15H12.0003C12.5525 15 13.0003 14.5523 13.0003 14C13.0003 13.4477 12.5525 13 12.0003 13H10.0003H9.99926H5.23626M8.99926 15H5.23626C4.72496 15 4.22211 14.8693 3.77552 14.6203C3.32894 14.3713 2.95339 14.0124 2.68454 13.5775C2.41569 13.1425 2.26245 12.6461 2.23938 12.1354C2.21631 11.6246 2.32418 11.1164 2.55273 10.659L6.05273 3.659C6.30182 3.16062 6.68488 2.74124 7.15879 2.44826C7.63276 2.15524 8.17899 2.00002 8.73623 2H12.7543C12.9993 2.00015 13.2441 2.03033 13.4818 2.08986L17.1224 3H19.0003C19.7959 3 20.559 3.31607 21.1216 3.87868C21.6842 4.44129 22.0003 5.20435 22.0003 6V12C22.0003 12.7957 21.6842 13.5587 21.1216 14.1213C20.559 14.6839 19.7959 15 19.0003 15H16.8688L14.4403 18.6427C14.1532 19.073 14.0003 19.5781 14.0003 20.096C14.0003 21.148 13.1468 22 12.0953 22H11.9993C11.2036 22 10.4405 21.6839 9.87794 21.1213C9.31533 20.5587 8.99926 19.7957 8.99926 19V15ZM18.0003 13H19.0003C19.2655 13 19.5198 12.8946 19.7074 12.7071C19.8949 12.5196 20.0003 12.2652 20.0003 12V6C20.0003 5.73478 19.8949 5.48043 19.7074 5.29289C19.5198 5.10536 19.2655 5 19.0003 5H18.0003V13Z" fill="#A4A4A4"/>
</svg>
