<svg width="24" height="24" viewBox="0 0 24 24" fill="none" xmlns="http://www.w3.org/2000/svg">
<path d="M2.40039 12.5984C2.40039 12.3621 2.44695 12.128 2.53741 11.9096C2.62787 11.6912 2.76045 11.4928 2.9276 11.3256C3.09474 11.1585 3.29317 11.0259 3.51156 10.9355C3.72995 10.845 3.96401 10.7984 4.20039 10.7984C4.43677 10.7984 4.67083 10.845 4.88922 10.9355C5.10761 11.0259 5.30604 11.1585 5.47318 11.3256C5.64033 11.4928 5.77292 11.6912 5.86337 11.9096C5.95383 12.128 6.00039 12.3621 6.00039 12.5984V19.7984C6.00039 20.2758 5.81075 20.7337 5.47318 21.0712C5.13562 21.4088 4.67778 21.5984 4.20039 21.5984C3.723 21.5984 3.26516 21.4088 2.9276 21.0712C2.59003 20.7337 2.40039 20.2758 2.40039 19.7984V12.5984ZM7.20039 12.398V18.914C7.20018 19.36 7.32425 19.7973 7.55869 20.1767C7.79312 20.5561 8.12863 20.8627 8.52759 21.062L8.58759 21.092C9.25345 21.4248 9.98759 21.5982 10.732 21.5984H17.2312C17.7862 21.5987 18.3242 21.4065 18.7535 21.0547C19.1827 20.7028 19.4768 20.2131 19.5856 19.6688L21.0256 12.4688C21.0952 12.1207 21.0867 11.7614 21.0006 11.417C20.9146 11.0725 20.7532 10.7514 20.5282 10.4769C20.3031 10.2023 20.0199 9.98108 19.6989 9.82918C19.378 9.67728 19.0274 9.59847 18.6724 9.59844H14.4004V4.79844C14.4004 4.16192 14.1475 3.55147 13.6974 3.10138C13.2474 2.65129 12.6369 2.39844 12.0004 2.39844C11.6821 2.39844 11.3769 2.52487 11.1519 2.74991C10.9268 2.97495 10.8004 3.28018 10.8004 3.59844V4.39884C10.8004 5.43741 10.4635 6.44798 9.84039 7.27884L8.16039 9.51804C7.53724 10.3489 7.20039 11.3595 7.20039 12.398Z" fill="#A4A4A4"/>
</svg>
