<svg width="18" height="17" viewBox="0 0 18 17" fill="none" xmlns="http://www.w3.org/2000/svg">
<path fill-rule="evenodd" clip-rule="evenodd" d="M9.00033 1.83464C7.23222 1.83464 5.53652 2.53701 4.28628 3.78726C3.03604 5.0375 2.33366 6.73319 2.33366 8.5013C2.33366 9.37678 2.5061 10.2437 2.84113 11.0525C3.17616 11.8614 3.66722 12.5963 4.28628 13.2153C4.90534 13.8344 5.64027 14.3255 6.4491 14.6605C7.25794 14.9955 8.12485 15.168 9.00033 15.168C9.8758 15.168 10.7427 14.9955 11.5515 14.6605C12.3604 14.3255 13.0953 13.8344 13.7144 13.2153C14.3334 12.5963 14.8245 11.8614 15.1595 11.0525C15.4946 10.2437 15.667 9.37678 15.667 8.5013C15.667 6.73319 14.9646 5.0375 13.7144 3.78726C12.4641 2.53701 10.7684 1.83464 9.00033 1.83464ZM3.10777 2.60875C4.67057 1.04594 6.79019 0.167969 9.00033 0.167969C11.2105 0.167969 13.3301 1.04594 14.8929 2.60875C16.4557 4.17155 17.3337 6.29116 17.3337 8.5013C17.3337 9.59565 17.1181 10.6793 16.6993 11.6903C16.2805 12.7014 15.6667 13.62 14.8929 14.3939C14.1191 15.1677 13.2004 15.7815 12.1894 16.2003C11.1783 16.6191 10.0947 16.8346 9.00033 16.8346C7.90598 16.8346 6.82234 16.6191 5.8113 16.2003C4.80025 15.7815 3.88159 15.1677 3.10777 14.3939C2.33395 13.62 1.72012 12.7014 1.30133 11.6903C0.88254 10.6793 0.666992 9.59565 0.666992 8.5013C0.666992 6.29116 1.54497 4.17155 3.10777 2.60875ZM12.0896 6.24538C12.415 6.57082 12.415 7.09845 12.0896 7.42389L8.75625 10.7572C8.43081 11.0827 7.90317 11.0827 7.57774 10.7572L5.91107 9.09056C5.58563 8.76512 5.58563 8.23748 5.91107 7.91205C6.23651 7.58661 6.76414 7.58661 7.08958 7.91205L8.16699 8.98946L10.9111 6.24538C11.2365 5.91994 11.7641 5.91994 12.0896 6.24538Z" fill="#333333"/>
</svg>
