<svg width="12" height="13" viewBox="0 0 12 13" fill="none" xmlns="http://www.w3.org/2000/svg">
<path fill-rule="evenodd" clip-rule="evenodd" d="M0.41107 0.912046C0.736507 0.58661 1.26414 0.58661 1.58958 0.912046L6.00033 5.32279L10.4111 0.912046C10.7365 0.58661 11.2641 0.58661 11.5896 0.912046C11.915 1.23748 11.915 1.76512 11.5896 2.09056L7.17884 6.5013L11.5896 10.912C11.915 11.2375 11.915 11.7651 11.5896 12.0906C11.2641 12.416 10.7365 12.416 10.4111 12.0906L6.00033 7.67981L1.58958 12.0906C1.26414 12.416 0.736507 12.416 0.41107 12.0906C0.0856329 11.7651 0.0856329 11.2375 0.41107 10.912L4.82181 6.5013L0.41107 2.09056C0.0856329 1.76512 0.0856329 1.23748 0.41107 0.912046Z" fill="#333333"/>
</svg>
